<svg width="149" height="184" viewBox="0 0 149 184" fill="none" xmlns="http://www.w3.org/2000/svg">
<g clip-path="url(#clip0_16622_1432)">
<path d="M146.53 80.8395C144.952 90.5079 138.99 104.167 135.012 112.566C128.221 145.498 107.945 180 74.0047 180C40.0645 180 19.7888 145.498 12.9972 112.566C9.01961 104.167 3.05776 90.5079 1.47936 80.8395C-0.946871 65.9558 -1.7947 42.3743 10.4357 25.9942C22.675 9.6231 45.9362 0 74.0047 0C102.073 0 125.334 9.6231 137.574 25.9942C149.804 42.3743 148.956 65.9558 146.53 80.8395Z" fill="#0F0F2B"/>
<path d="M137.529 48.3417C120.049 25.1139 91.5296 25.1139 78.4063 25.1139H73.9958H69.5943C56.462 25.1139 27.9245 25.1139 10.4629 48.3599C11.7076 42.3284 13.9264 36.4058 17.6424 31.4356C28.1139 17.4317 49.1833 9.06934 73.9958 9.06934C98.8083 9.06934 119.887 17.4317 130.358 31.4446C134.065 36.4058 136.275 42.3194 137.529 48.3417Z" fill="url(#paint0_radial_16622_1432)"/>
<path d="M74.0052 33.4141C90.4389 33.4141 122.55 31.8199 136.793 63.2784L136.808 63.3096L136.821 63.3399C140.424 71.7215 141.658 83.3855 140.822 95.9082C139.98 108.505 137.023 122.314 131.932 135.154C121.84 160.61 102.756 183.5 74.0052 183.5C45.2539 183.5 26.1697 160.61 16.0765 135.154C10.9851 122.314 8.02727 108.504 7.18485 95.9082C6.34741 83.3858 7.57937 71.7223 11.18 63.3409L11.1927 63.3096L11.2073 63.2784C25.4597 31.8108 57.5709 33.4141 73.9954 33.4141H74.0052ZM74.0052 40.4141H73.9954C56.5382 40.4141 29.7452 39.4076 17.6116 66.1045C14.6237 73.0601 13.3689 83.4741 14.1692 95.4415C14.9647 107.336 17.7679 120.43 22.5833 132.574C32.3035 157.089 49.6141 176.5 74.0052 176.5C98.3961 176.5 115.706 157.089 125.425 132.574C130.24 120.43 133.042 107.335 133.836 95.4415C134.634 83.4868 133.382 73.0823 130.399 66.127C118.279 39.4161 91.476 40.4141 74.0052 40.4141Z" fill="url(#paint1_linear_16622_1432)"/>
<path d="M41.7692 103.36H106.231C114.782 103.36 120.816 111.686 118.326 119.913C115.756 128.393 112.085 136.837 107.142 144.392C97.9964 158.387 86.8484 165.489 74.0047 165.489C61.161 165.489 50.004 158.387 40.8583 144.392C35.9156 136.837 32.2447 128.393 29.6742 119.913C27.1036 111.433 33.2188 103.36 41.7692 103.36Z" fill="url(#paint2_radial_16622_1432)"/>
<g clip-path="url(#clip1_16622_1432)">
<path d="M27.03 91.5299C29.12 77.9399 41.43 63.5399 56.46 66.3599C65.16 67.8599 71.71 74.3099 77.26 80.5699C82.34 86.1399 86.15 91.4199 92.37 94.9399C102.49 100.49 112.05 93.6699 118.54 85.3999C119.23 84.4499 120.82 85.2299 120.48 86.3599C117.14 99.4199 105.35 109.11 91.31 105.53C81.78 103.01 74.89 95.1499 68.79 88.0199C64.17 82.8899 60.46 78.1199 54.35 76.2299C43.66 73.4199 34.66 83.6999 29.59 92.4199C28.89 93.7699 26.75 93.0399 27.03 91.5299Z" fill="white"/>
</g>
</g>
<defs>
<radialGradient id="paint0_radial_16622_1432" cx="0" cy="0" r="1" gradientUnits="userSpaceOnUse" gradientTransform="translate(136.708 46.9903) scale(122.511 123.196)">
<stop stop-color="#5752A3" stop-opacity="0.96"/>
<stop offset="0.47" stop-color="#5752A3" stop-opacity="0.5"/>
<stop offset="1" stop-color="#5752A3" stop-opacity="0"/>
</radialGradient>
<linearGradient id="paint1_linear_16622_1432" x1="74.0048" y1="33.7307" x2="74.0048" y2="183.174" gradientUnits="userSpaceOnUse">
<stop stop-color="#6FCCDD"/>
<stop offset="1" stop-color="#5752A3"/>
</linearGradient>
<radialGradient id="paint2_radial_16622_1432" cx="0" cy="0" r="1" gradientUnits="userSpaceOnUse" gradientTransform="translate(75.7725 167.783) scale(68.6921 69.0759)">
<stop stop-color="#5752A3" stop-opacity="0.96"/>
<stop offset="0.47" stop-color="#5752A3" stop-opacity="0.5"/>
<stop offset="1" stop-color="#5752A3" stop-opacity="0"/>
</radialGradient>
<clipPath id="clip0_16622_1432">
<rect width="149" height="184" fill="white"/>
</clipPath>
<clipPath id="clip1_16622_1432">
<rect width="93.53" height="40.28" fill="white" transform="translate(27 66)"/>
</clipPath>
</defs>
</svg>
