<svg width="149" height="184" viewBox="0 0 149 184" fill="none" xmlns="http://www.w3.org/2000/svg">
<g clip-path="url(#clip0_16622_1386)">
<path d="M146.53 80.8395C144.952 90.5079 138.99 104.167 135.012 112.566C128.221 145.498 107.945 180 74.0047 180C40.0645 180 19.7888 145.498 12.9972 112.566C9.01961 104.167 3.05776 90.5079 1.47936 80.8395C-0.946871 65.9558 -1.7947 42.3743 10.4357 25.9942C22.675 9.6231 45.9362 0 74.0047 0C102.073 0 125.334 9.6231 137.574 25.9942C149.804 42.3743 148.956 65.9558 146.53 80.8395Z" fill="#0F0F2B"/>
<path d="M137.529 48.3417C120.049 25.1139 91.5296 25.1139 78.4063 25.1139H73.9958H69.5943C56.462 25.1139 27.9245 25.1139 10.4629 48.3599C11.7076 42.3284 13.9264 36.4058 17.6424 31.4356C28.1139 17.4317 49.1833 9.06934 73.9958 9.06934C98.8083 9.06934 119.887 17.4317 130.358 31.4446C134.065 36.4058 136.275 42.3194 137.529 48.3417Z" fill="url(#paint0_radial_16622_1386)"/>
<path d="M74.0049 33.4141C90.4387 33.4141 122.55 31.8199 136.793 63.2784L136.808 63.3096L136.82 63.3399C140.423 71.7215 141.658 83.3855 140.821 95.9082C139.98 108.505 137.022 122.314 131.932 135.154C121.84 160.61 102.756 183.5 74.0049 183.5C45.2536 183.5 26.1695 160.61 16.0762 135.154C10.9848 122.314 8.02702 108.504 7.18461 95.9082C6.34716 83.3858 7.57913 71.7223 11.1797 63.3409L11.1924 63.3096L11.2071 63.2784C25.4594 31.8108 57.5706 33.4141 73.9952 33.4141H74.0049ZM74.0049 40.4141H73.9952C56.538 40.4141 29.7449 39.4076 17.6114 66.1045C14.6234 73.0601 13.3686 83.4741 14.169 95.4415C14.9644 107.336 17.7677 120.43 22.583 132.574C32.3033 157.089 49.6138 176.5 74.0049 176.5C98.3958 176.5 115.706 157.089 125.425 132.574C130.24 120.43 133.042 107.335 133.836 95.4415C134.634 83.4868 133.382 73.0823 130.398 66.127C118.279 39.4161 91.4758 40.4141 74.0049 40.4141Z" fill="url(#paint1_linear_16622_1386)"/>
<path d="M41.7692 103.36H106.231C114.782 103.36 120.816 111.686 118.326 119.913C115.756 128.393 112.085 136.837 107.142 144.392C97.9964 158.387 86.8484 165.489 74.0047 165.489C61.161 165.489 50.004 158.387 40.8583 144.392C35.9156 136.837 32.2447 128.393 29.6742 119.913C27.1036 111.433 33.2188 103.36 41.7692 103.36Z" fill="url(#paint2_radial_16622_1386)"/>
<path d="M24.9234 80.8803C49.2459 76.4951 73.95 76.371 98.536 77.8505C106.713 78.4529 114.89 79.2679 123.077 80.8803C124.285 81.1106 124.33 82.8825 123.077 83.1216C98.7541 87.4892 74.05 87.6309 49.464 86.1603C41.2868 85.5579 33.1097 84.7429 24.9234 83.1216C23.715 82.8913 23.6696 81.1195 24.9234 80.8803Z" fill="white"/>
</g>
<defs>
<radialGradient id="paint0_radial_16622_1386" cx="0" cy="0" r="1" gradientUnits="userSpaceOnUse" gradientTransform="translate(136.708 46.9903) scale(122.511 123.196)">
<stop stop-color="#5752A3" stop-opacity="0.96"/>
<stop offset="0.47" stop-color="#5752A3" stop-opacity="0.5"/>
<stop offset="1" stop-color="#5752A3" stop-opacity="0"/>
</radialGradient>
<linearGradient id="paint1_linear_16622_1386" x1="74.0046" y1="33.7307" x2="74.0046" y2="183.174" gradientUnits="userSpaceOnUse">
<stop stop-color="#6FCCDD"/>
<stop offset="1" stop-color="#5752A3"/>
</linearGradient>
<radialGradient id="paint2_radial_16622_1386" cx="0" cy="0" r="1" gradientUnits="userSpaceOnUse" gradientTransform="translate(75.7725 167.783) scale(68.6921 69.0759)">
<stop stop-color="#5752A3" stop-opacity="0.96"/>
<stop offset="0.47" stop-color="#5752A3" stop-opacity="0.5"/>
<stop offset="1" stop-color="#5752A3" stop-opacity="0"/>
</radialGradient>
<clipPath id="clip0_16622_1386">
<rect width="149" height="184" fill="white"/>
</clipPath>
</defs>
</svg>
