<svg width="149" height="184" viewBox="0 0 149 184" fill="none" xmlns="http://www.w3.org/2000/svg">
<g clip-path="url(#clip0_16622_1409)">
<path d="M146.526 80.8395C144.948 90.5079 138.986 104.167 135.008 112.566C128.217 145.498 107.941 180 74.0008 180C40.0606 180 19.7849 145.498 12.9933 112.566C9.01571 104.167 3.05385 90.5079 1.47545 80.8395C-0.950777 65.9558 -1.7986 42.3743 10.4318 25.9942C22.6711 9.6231 45.9323 0 74.0008 0C102.069 0 125.33 9.6231 137.57 25.9942C149.8 42.3743 148.952 65.9558 146.526 80.8395Z" fill="#0F0F2B"/>
<path d="M137.525 48.3417C120.045 25.1139 91.5257 25.1139 78.4024 25.1139H73.9919H69.5904C56.4581 25.1139 27.9206 25.1139 10.459 48.3599C11.7037 42.3284 13.9224 36.4058 17.6385 31.4356C28.11 17.4317 49.1794 9.06934 73.9919 9.06934C98.8044 9.06934 119.883 17.4317 130.354 31.4446C134.061 36.4058 136.271 42.3194 137.525 48.3417Z" fill="url(#paint0_radial_16622_1409)"/>
<path d="M74.001 33.4141C90.4348 33.4141 122.546 31.8199 136.789 63.2784L136.804 63.3096L136.816 63.3399C140.42 71.7215 141.654 83.3855 140.817 95.9082C139.976 108.505 137.019 122.314 131.928 135.154C121.836 160.61 102.752 183.5 74.001 183.5C45.2497 183.5 26.1656 160.61 16.0723 135.154C10.9809 122.314 8.02312 108.504 7.1807 95.9082C6.34326 83.3858 7.57522 71.7223 11.1758 63.3409L11.1885 63.3096L11.2032 63.2784C25.4555 31.8108 57.5667 33.4141 73.9912 33.4141H74.001ZM74.001 40.4141H73.9912C56.534 40.4141 29.741 39.4076 17.6075 66.1045C14.6195 73.0601 13.3647 83.4741 14.1651 95.4415C14.9605 107.336 17.7638 120.43 22.5791 132.574C32.2994 157.089 49.6099 176.5 74.001 176.5C98.3919 176.5 115.702 157.089 125.421 132.574C130.236 120.43 133.038 107.335 133.832 95.4415C134.63 83.4868 133.378 73.0823 130.395 66.127C118.275 39.4161 91.4718 40.4141 74.001 40.4141Z" fill="url(#paint1_linear_16622_1409)"/>
<path d="M41.7653 103.36H106.227C114.778 103.36 120.812 111.686 118.322 119.913C115.752 128.393 112.081 136.837 107.138 144.392C97.9925 158.387 86.8445 165.489 74.0008 165.489C61.1571 165.489 50.0001 158.387 40.8544 144.392C35.9117 136.837 32.2408 128.393 29.6703 119.913C27.0997 111.433 33.2149 103.36 41.7653 103.36Z" fill="url(#paint2_radial_16622_1409)"/>
<g clip-path="url(#clip1_16622_1409)">
<path d="M31.4065 68.0313C54.4891 73.0352 76.221 82.4045 97.1979 93.3183C104.131 97.0557 110.964 101.02 117.49 105.756C118.513 106.477 117.827 108.248 116.586 107.97C93.5131 102.945 71.7614 93.5963 50.7943 82.6825C43.8616 78.9554 37.0183 74.9914 30.5027 70.2449C29.4797 69.5242 30.165 67.7533 31.4065 68.0313Z" fill="white"/>
<path d="M117.49 70.2441C104.478 79.5311 90.4141 86.5221 76.0123 92.9365C61.5311 99.1656 46.8909 104.756 31.4065 107.969C30.1947 108.226 29.4498 106.476 30.5026 105.755C43.5139 96.4784 57.578 89.4874 71.9798 83.0627C86.4611 76.8233 101.101 71.2326 116.586 68.0305C117.797 67.7731 118.542 69.5234 117.49 70.2441Z" fill="white"/>
</g>
</g>
<defs>
<radialGradient id="paint0_radial_16622_1409" cx="0" cy="0" r="1" gradientUnits="userSpaceOnUse" gradientTransform="translate(136.704 46.9903) scale(122.511 123.196)">
<stop stop-color="#5752A3" stop-opacity="0.96"/>
<stop offset="0.47" stop-color="#5752A3" stop-opacity="0.5"/>
<stop offset="1" stop-color="#5752A3" stop-opacity="0"/>
</radialGradient>
<linearGradient id="paint1_linear_16622_1409" x1="74.0007" y1="33.7307" x2="74.0007" y2="183.174" gradientUnits="userSpaceOnUse">
<stop stop-color="#6FCCDD"/>
<stop offset="1" stop-color="#5752A3"/>
</linearGradient>
<radialGradient id="paint2_radial_16622_1409" cx="0" cy="0" r="1" gradientUnits="userSpaceOnUse" gradientTransform="translate(75.7686 167.783) scale(68.6921 69.0759)">
<stop stop-color="#5752A3" stop-opacity="0.96"/>
<stop offset="0.47" stop-color="#5752A3" stop-opacity="0.5"/>
<stop offset="1" stop-color="#5752A3" stop-opacity="0"/>
</radialGradient>
<clipPath id="clip0_16622_1409">
<rect width="149" height="184" fill="white"/>
</clipPath>
<clipPath id="clip1_16622_1409">
<rect width="88" height="40" fill="white" transform="translate(29.9961 68)"/>
</clipPath>
</defs>
</svg>
