<svg width="149" height="184" viewBox="0 0 149 184" fill="none" xmlns="http://www.w3.org/2000/svg">
<g clip-path="url(#clip0_16622_1418)">
<path d="M146.53 80.8395C144.952 90.5079 138.99 104.167 135.012 112.566C128.221 145.498 107.945 180 74.0047 180C40.0645 180 19.7888 145.498 12.9972 112.566C9.01961 104.167 3.05776 90.5079 1.47936 80.8395C-0.946871 65.9558 -1.7947 42.3743 10.4357 25.9942C22.675 9.6231 45.9362 0 74.0047 0C102.073 0 125.334 9.6231 137.574 25.9942C149.804 42.3743 148.956 65.9558 146.53 80.8395Z" fill="#0F0F2B"/>
<path d="M137.529 48.3417C120.049 25.1139 91.5296 25.1139 78.4063 25.1139H73.9958H69.5943C56.462 25.1139 27.9245 25.1139 10.4629 48.3599C11.7076 42.3284 13.9264 36.4058 17.6424 31.4356C28.1139 17.4317 49.1833 9.06934 73.9958 9.06934C98.8083 9.06934 119.887 17.4317 130.358 31.4446C134.065 36.4058 136.275 42.3194 137.529 48.3417Z" fill="url(#paint0_radial_16622_1418)"/>
<path d="M74.0049 33.4141C90.4387 33.4141 122.55 31.8199 136.793 63.2784L136.808 63.3096L136.82 63.3399C140.423 71.7215 141.658 83.3855 140.821 95.9082C139.98 108.505 137.022 122.314 131.932 135.154C121.84 160.61 102.756 183.5 74.0049 183.5C45.2536 183.5 26.1695 160.61 16.0762 135.154C10.9848 122.314 8.02702 108.504 7.18461 95.9082C6.34716 83.3858 7.57913 71.7223 11.1797 63.3409L11.1924 63.3096L11.2071 63.2784C25.4594 31.8108 57.5706 33.4141 73.9952 33.4141H74.0049ZM74.0049 40.4141H73.9952C56.538 40.4141 29.7449 39.4076 17.6114 66.1045C14.6234 73.0601 13.3686 83.4741 14.169 95.4415C14.9644 107.336 17.7677 120.43 22.583 132.574C32.3033 157.089 49.6138 176.5 74.0049 176.5C98.3958 176.5 115.706 157.089 125.425 132.574C130.24 120.43 133.042 107.335 133.836 95.4415C134.634 83.4868 133.382 73.0823 130.398 66.127C118.279 39.4161 91.4758 40.4141 74.0049 40.4141Z" fill="url(#paint1_linear_16622_1418)"/>
<path d="M41.7692 103.36H106.231C114.782 103.36 120.816 111.686 118.326 119.913C115.756 128.393 112.085 136.837 107.142 144.392C97.9964 158.387 86.8484 165.489 74.0047 165.489C61.161 165.489 50.004 158.387 40.8583 144.392C35.9156 136.837 32.2447 128.393 29.6742 119.913C27.1036 111.433 33.2188 103.36 41.7692 103.36Z" fill="url(#paint2_radial_16622_1418)"/>
<g clip-path="url(#clip1_16622_1418)">
<path d="M26.1233 95.6867C24.3731 94.1146 23.8758 92.4131 24.0288 90.3036C24.0957 87.0499 27.0127 81.6569 30.6279 84.622C32.7032 86.8807 33.5353 90.0549 32.7319 92.9902C31.919 95.7166 28.6577 97.8758 26.1233 95.6867Z" fill="white"/>
<path d="M117.143 95.6867C115.192 93.3882 114.589 90.443 115.45 87.6071C116.253 84.841 119.381 82.5325 121.925 84.9106C124.182 87.1494 124.421 90.1345 123.493 92.9902C122.623 95.8161 119.754 98.2937 117.143 95.6867Z" fill="white"/>
<path d="M41.2915 101.617C38.8145 96.6024 38.824 91.0701 39.6656 85.6771C40.2395 83.1298 41.0907 77.4582 44.8588 79.1C45.404 79.3786 45.8248 79.8363 46.0735 80.3636C46.9151 82.1348 47.3646 83.9059 47.6993 85.6771C48.5409 91.0701 48.5601 96.6024 46.0735 101.617C45.1171 103.568 42.2383 103.548 41.2915 101.617Z" fill="white"/>
<path d="M101.974 109.299C100.186 103.289 99.8416 97.1792 99.8894 90.9902C99.9946 84.821 100.435 78.7116 101.974 72.6817C102.615 70.1743 106.125 70.1942 106.756 72.6817C108.927 81.6867 109.243 90.9504 108.478 100.144C108.162 103.199 107.694 106.244 106.756 109.299C106.335 110.672 104.92 111.428 103.6 110.99C102.806 110.722 102.223 110.075 101.974 109.299Z" fill="white"/>
<path d="M86.7965 107.099C85.228 101.816 84.8837 96.4424 84.8933 90.9896C84.9698 85.5568 85.3523 80.1837 86.7965 74.8802C87.179 73.5071 88.5658 72.721 89.8856 73.119C90.7272 73.3777 91.3393 74.0643 91.5784 74.8802C92.334 77.5668 92.7356 80.2533 93.0417 82.9299C93.7685 91.0195 93.8451 99.2085 91.5784 107.089C91.1576 108.462 89.7422 109.218 88.4223 108.781C87.6285 108.512 87.0451 107.855 86.7965 107.089V107.099Z" fill="white"/>
<path d="M71.6282 116.951C70.0884 108.344 69.7345 99.6869 69.6963 90.9904C69.7441 82.2939 70.1075 73.6272 71.6282 65.0302C72.1255 62.3237 75.9224 62.3436 76.4101 65.0302C78.5811 77.9058 78.6672 90.9705 77.9308 103.975C77.6248 108.304 77.2231 112.632 76.4101 116.961C76.1519 118.334 74.8704 119.229 73.5505 118.961C72.5463 118.762 71.8099 117.936 71.6282 116.961V116.951Z" fill="white"/>
<path d="M56.4599 107.985C54.8149 102.403 54.4036 96.731 54.3367 90.9897C54.3558 85.2385 54.7575 79.5668 56.4599 73.9947C56.8998 72.6216 58.3248 71.8753 59.6446 72.333C60.4289 72.6017 61.0027 73.2484 61.2418 73.9947C62.1408 76.8305 62.6094 79.6564 62.9346 82.4922C63.7475 91.0295 63.5754 99.6763 61.2418 107.995C60.5245 110.403 57.158 110.373 56.4599 107.995V107.985Z" fill="white"/>
</g>
</g>
<defs>
<radialGradient id="paint0_radial_16622_1418" cx="0" cy="0" r="1" gradientUnits="userSpaceOnUse" gradientTransform="translate(136.708 46.9903) scale(122.511 123.196)">
<stop stop-color="#5752A3" stop-opacity="0.96"/>
<stop offset="0.47" stop-color="#5752A3" stop-opacity="0.5"/>
<stop offset="1" stop-color="#5752A3" stop-opacity="0"/>
</radialGradient>
<linearGradient id="paint1_linear_16622_1418" x1="74.0046" y1="33.7307" x2="74.0046" y2="183.174" gradientUnits="userSpaceOnUse">
<stop stop-color="#6FCCDD"/>
<stop offset="1" stop-color="#5752A3"/>
</linearGradient>
<radialGradient id="paint2_radial_16622_1418" cx="0" cy="0" r="1" gradientUnits="userSpaceOnUse" gradientTransform="translate(75.7725 167.783) scale(68.6921 69.0759)">
<stop stop-color="#5752A3" stop-opacity="0.96"/>
<stop offset="0.47" stop-color="#5752A3" stop-opacity="0.5"/>
<stop offset="1" stop-color="#5752A3" stop-opacity="0"/>
</radialGradient>
<clipPath id="clip0_16622_1418">
<rect width="149" height="184" fill="white"/>
</clipPath>
<clipPath id="clip1_16622_1418">
<rect width="100" height="56" fill="white" transform="translate(24 63)"/>
</clipPath>
</defs>
</svg>
